<svg width="600" height="400" viewBox="0 0 600 400" xmlns="http://www.w3.org/2000/svg">
  <rect width="600" height="400" fill="#1e2536" />
  <rect x="10" y="10" width="580" height="20" fill="#2f3a4f" rx="3" ry="3" />
  <circle cx="25" cy="20" r="5" fill="#ff5f56" />
  <circle cx="40" cy="20" r="5" fill="#ffbd2e" />
  <circle cx="55" cy="20" r="5" fill="#27c93f" />
  
  <!-- Left sidebar -->
  <rect x="10" y="40" width="150" height="350" fill="#1a202c" />
  
  <!-- Code area -->
  <rect x="160" y="40" width="430" height="350" fill="#1e2536" />
  
  <!-- File tree lines -->
  <rect x="20" y="60" width="130" height="1" fill="#4a5568" />
  <rect x="20" y="80" width="130" height="1" fill="#4a5568" />
  <rect x="20" y="100" width="130" height="1" fill="#4a5568" />
  <rect x="20" y="120" width="130" height="1" fill="#4a5568" />
  <rect x="20" y="140" width="130" height="1" fill="#4a5568" />
  <rect x="20" y="160" width="130" height="1" fill="#4a5568" />
  <rect x="20" y="180" width="130" height="1" fill="#4a5568" />
  
  <!-- Code lines -->
  <rect x="180" y="60" width="120" height="12" fill="#7b9ecd" opacity="0.6" rx="2" ry="2" />
  <rect x="180" y="80" width="200" height="12" fill="#65d6ad" opacity="0.6" rx="2" ry="2" />
  <rect x="200" y="100" width="150" height="12" fill="#ffa657" opacity="0.6" rx="2" ry="2" />
  <rect x="220" y="120" width="180" height="12" fill="#ff7b72" opacity="0.6" rx="2" ry="2" />
  <rect x="220" y="140" width="90" height="12" fill="#7b9ecd" opacity="0.6" rx="2" ry="2" />
  <rect x="200" y="160" width="250" height="12" fill="#79c0ff" opacity="0.6" rx="2" ry="2" />
  <rect x="180" y="180" width="200" height="12" fill="#d2a8ff" opacity="0.6" rx="2" ry="2" />
  <rect x="180" y="200" width="100" height="12" fill="#7b9ecd" opacity="0.6" rx="2" ry="2" />
  
  <!-- Person inset -->
  <circle cx="550" cy="320" r="40" fill="#2d3748" />
  <rect x="530" y="290" width="40" height="30" fill="#4a5568" rx="15" ry="15" />
  <circle cx="550" cy="280" r="15" fill="#4a5568" />
</svg>