<svg width="60" height="60" viewBox="0 0 60 60" fill="none" xmlns="http://www.w3.org/2000/svg">
  <circle cx="30" cy="30" r="25" fill="#EAFFD0"/>
  <path d="M30 15V18M30 42V45M20 30C20 24.4772 24.4772 20 30 20C35.5228 20 40 24.4772 40 30C40 35.5228 35.5228 40 30 40C24.4772 40 20 35.5228 20 30Z" stroke="#4CAF50" stroke-width="2" stroke-linecap="round"/>
  <path d="M27 27H31.5C32.8807 27 34 28.1193 34 29.5C34 30.8807 32.8807 32 31.5 32H28.5C27.1193 32 26 33.1193 26 34.5C26 35.8807 27.1193 37 28.5 37H33" stroke="#4CAF50" stroke-width="2" stroke-linecap="round"/>
</svg>